<?xml version="1.0" encoding="UTF-8" standalone="no"?>
<!-- Created with Inkscape (http://www.inkscape.org/) -->
<svg
   xmlns:dc="http://purl.org/dc/elements/1.1/"
   xmlns:cc="http://creativecommons.org/ns#"
   xmlns:rdf="http://www.w3.org/1999/02/22-rdf-syntax-ns#"
   xmlns:svg="http://www.w3.org/2000/svg"
   xmlns="http://www.w3.org/2000/svg"
   xmlns:sodipodi="http://sodipodi.sourceforge.net/DTD/sodipodi-0.dtd"
   xmlns:inkscape="http://www.inkscape.org/namespaces/inkscape"
   width="744.09448819"
   height="1052.3622047"
   id="svg2"
   sodipodi:version="0.32"
   inkscape:version="0.46"
   sodipodi:docname="favicon.svg"
   inkscape:output_extension="org.inkscape.output.svg.inkscape">
  <defs
     id="defs4">
    <inkscape:perspective
       sodipodi:type="inkscape:persp3d"
       inkscape:vp_x="0 : 526.18109 : 1"
       inkscape:vp_y="0 : 1000 : 0"
       inkscape:vp_z="744.09448 : 526.18109 : 1"
       inkscape:persp3d-origin="372.04724 : 350.78739 : 1"
       id="perspective10" />
  </defs>
  <sodipodi:namedview
     id="base"
     pagecolor="#ffffff"
     bordercolor="#666666"
     borderopacity="1.0"
     gridtolerance="10000"
     guidetolerance="10"
     objecttolerance="10"
     inkscape:pageopacity="0.0"
     inkscape:pageshadow="2"
     inkscape:zoom="11.442445"
     inkscape:cx="-145.85494"
     inkscape:cy="394.26758"
     inkscape:document-units="px"
     inkscape:current-layer="layer1"
     showgrid="false"
     inkscape:window-width="1278"
     inkscape:window-height="748"
     inkscape:window-x="0"
     inkscape:window-y="18" />
  <metadata
     id="metadata7">
    <rdf:RDF>
      <cc:Work
         rdf:about="">
        <dc:format>image/svg+xml</dc:format>
        <dc:type
           rdf:resource="http://purl.org/dc/dcmitype/StillImage" />
      </cc:Work>
    </rdf:RDF>
  </metadata>
  <g
     inkscape:label="Layer 1"
     inkscape:groupmode="layer"
     id="layer1">
    <rect
       style="opacity:1;fill:none;fill-opacity:1;fill-rule:nonzero;stroke:none;stroke-width:0.10000000000000001;stroke-linecap:butt;stroke-linejoin:miter;marker:none;marker-start:none;marker-mid:none;marker-end:none;stroke-miterlimit:4;stroke-dasharray:none;stroke-dashoffset:0;stroke-opacity:1;visibility:visible;display:inline;overflow:visible;enable-background:accumulate"
       id="rect2404"
       width="12.248889"
       height="12.248889"
       x="-164.85155"
       y="648.56488"
       inkscape:export-filename="/home/manveru/c/innate/example/app/wiki/public/favicon.ico.png"
       inkscape:export-xdpi="235.12"
       inkscape:export-ydpi="235.12" />
    <path
       style="font-size:12px;font-style:normal;font-weight:normal;fill:#d40000;fill-opacity:1;stroke:none;stroke-width:1px;stroke-linecap:butt;stroke-linejoin:miter;stroke-opacity:1;font-family:Bitstream Vera Sans"
       d="M -161.68534,652.79688 C -161.68534,652.32888 -162.09334,652.05288 -162.63334,652.05288 C -162.82534,652.05288 -163.08934,652.10088 -163.29334,652.16088 C -163.29334,652.16088 -163.23334,652.26888 -163.17334,653.43288 C -163.13734,654.20088 -163.11334,655.16088 -163.11334,656.15688 L -163.11334,659.69688 C -163.11334,660.44088 -162.65734,660.69288 -162.03334,660.69288 C -161.66134,660.69288 -161.49334,660.57288 -161.49334,660.57288 C -161.62534,660.24888 -161.66134,660.16488 -161.68534,659.28888 C -161.70934,658.06488 -161.73334,656.93687 -161.73334,655.83288 C -161.73334,654.82488 -161.70934,653.84087 -161.68534,652.79688"
       id="path3203"
       inkscape:export-filename="/home/manveru/c/innate/example/app/wiki/public/favicon.ico.png"
       inkscape:export-xdpi="235.12"
       inkscape:export-ydpi="235.12" />
    <path
       style="font-size:12px;font-style:normal;font-weight:normal;fill:#000000;fill-opacity:1;stroke:none;stroke-width:1px;stroke-linecap:butt;stroke-linejoin:miter;stroke-opacity:1;font-family:Bitstream Vera Sans"
       d="M -158.1519,655.95288 C -158.1519,655.48488 -157.1319,655.08888 -156.4959,655.08888 C -156.0759,655.08888 -155.7639,655.29288 -155.7399,655.85688 C -155.7159,656.42088 -155.6919,657.03288 -155.6919,657.66888 C -155.6919,658.34088 -155.7399,659.03688 -155.7399,659.72088 C -155.7399,660.44088 -155.2119,660.69288 -154.5999,660.69288 C -153.9039,660.69288 -153.3399,660.32088 -153.3399,659.90088 C -153.5679,660.08088 -153.7479,660.16488 -153.9039,660.16488 C -154.3719,660.16488 -154.4319,659.43288 -154.4319,658.50888 C -154.4319,657.60888 -154.3719,656.61287 -154.3719,655.46088 C -154.3719,654.74088 -155.1279,654.45288 -155.9559,654.45288 C -156.9279,654.45288 -158.0199,654.83688 -158.2359,655.42488 C -158.2359,655.42488 -158.2479,655.41288 -158.2479,655.40088 C -158.2479,655.35288 -158.1999,655.26888 -158.1999,655.11288 C -158.1999,654.74088 -158.6199,654.45288 -159.1719,654.45288 C -159.3639,654.45288 -159.5559,654.50088 -159.7599,654.56088 C -159.7599,654.56088 -159.5799,654.66888 -159.5199,655.83288 C -159.4959,656.40888 -159.4719,657.03288 -159.4719,657.63288 C -159.4719,659.78087 -159.6759,660.53688 -159.7599,660.57288 C -159.4719,660.63288 -159.1599,660.69288 -158.9079,660.69288 C -158.4879,660.69288 -158.1519,660.52488 -158.1519,659.87688 C -158.1519,659.10888 -158.1999,658.37688 -158.1999,657.70488 C -158.1999,657.05688 -158.1879,656.46888 -158.1519,655.95288"
       id="text2383"
       inkscape:export-filename="/home/manveru/c/innate/example/app/wiki/public/favicon.ico.png"
       inkscape:export-xdpi="235.12"
       inkscape:export-ydpi="235.12" />
    <path
       sodipodi:type="arc"
       style="opacity:1;fill:#ff6600;fill-opacity:1;fill-rule:nonzero;stroke:none;stroke-width:0.1;stroke-linecap:butt;stroke-linejoin:miter;marker:none;marker-start:none;marker-mid:none;marker-end:none;stroke-miterlimit:4;stroke-dasharray:none;stroke-dashoffset:0;stroke-opacity:1;visibility:visible;display:inline;overflow:visible;enable-background:accumulate"
       id="path3184"
       sodipodi:cx="-178.6489"
       sodipodi:cy="649.99774"
       sodipodi:rx="3.1893334"
       sodipodi:ry="3.1893334"
       d="M -175.45956,649.99774 A 3.1893334,3.1893334 0 1 1 -181.83823,649.99774 A 3.1893334,3.1893334 0 1 1 -175.45956,649.99774 z"
       transform="matrix(0.5011101,0,0,0.5011101,-72.937408,324.63463)"
       inkscape:export-filename="/home/manveru/c/innate/example/app/wiki/public/favicon.ico.png"
       inkscape:export-xdpi="235.12"
       inkscape:export-ydpi="235.12" />
    <path
       style="font-size:4.60826588px;font-style:normal;font-weight:normal;fill:#d40000;fill-opacity:1;stroke:none;stroke-width:1px;stroke-linecap:butt;stroke-linejoin:miter;stroke-opacity:1;font-family:Bitstream Vera Sans"
       d="M -163.2761,652.67278 C -163.22129,652.46825 -163.36728,652.29984 -163.6033,652.2366 C -163.68721,652.21412 -163.8082,652.20419 -163.90438,652.20651 C -163.90438,652.20651 -163.89081,652.26074 -164.0009,652.77649 C -164.0751,653.11636 -164.17704,653.53872 -164.29367,653.97401 L -164.70822,655.52114 C -164.79535,655.8463 -164.62556,656.00984 -164.35284,656.08292 C -164.19027,656.12648 -164.10279,656.09369 -164.10279,656.09369 C -164.12254,655.93664 -164.12844,655.89571 -164.03634,655.51005 C -163.9035,654.97231 -163.78189,654.47651 -163.65261,653.99401 C -163.53457,653.55348 -163.40885,653.12625 -163.2761,652.67278"
       id="text3186"
       inkscape:export-filename="/home/manveru/c/innate/example/app/wiki/public/favicon.ico.png"
       inkscape:export-xdpi="235.12"
       inkscape:export-ydpi="235.12" />
    <path
       style="font-size:4.60826588px;font-style:normal;font-weight:normal;fill:#d40000;fill-opacity:1;stroke:none;stroke-width:1px;stroke-linecap:butt;stroke-linejoin:miter;stroke-opacity:1;font-family:Bitstream Vera Sans"
       d="M -160.89569,652.51058 C -160.95049,652.30605 -161.16112,652.23319 -161.39714,652.29644 C -161.48105,652.31892 -161.5908,652.37082 -161.67293,652.42092 C -161.67293,652.42092 -161.63406,652.4611 -161.47153,652.9628 C -161.36585,653.29423 -161.24296,653.71098 -161.12632,654.14626 L -160.71176,655.69339 C -160.62464,656.01855 -160.39583,656.07529 -160.1231,656.00222 C -159.96053,655.95866 -159.90117,655.88652 -159.90117,655.88652 C -159.9968,655.76039 -160.02237,655.72789 -160.13544,655.34785 C -160.28927,654.81573 -160.43185,654.32555 -160.56114,653.84305 C -160.67918,653.40252 -160.78392,652.96967 -160.89569,652.51058"
       id="path3192"
       inkscape:export-filename="/home/manveru/c/innate/example/app/wiki/public/favicon.ico.png"
       inkscape:export-xdpi="235.12"
       inkscape:export-ydpi="235.12" />
  </g>
</svg>
